<svg width="138" height="45" viewBox="0 0 138 45" fill="none" xmlns="http://www.w3.org/2000/svg">
  <path d="M32.6999 15C32.6999 19.7 40.7999 20 40.7999 23.6C40.7999 24.9 39.5999 25.5 38.5999 25.5C33.7999 25.5 31.0999 18.8 30.2999 11.3C29.9999 8.49997 28.8999 7.09997 26.0999 5.89997C19.3999 3.09997 9.4999 1.49998 3.3999 0.599976C4.0999 3.29998 13.1999 4.89997 16.9999 5.29997C16.6999 5.79997 16.1999 6.69998 15.8999 7.19998C12.0999 6.19998 5.5999 5.29998 0.899902 4.69998C2.3999 7.69998 9.3999 8.19998 14.9999 9.19998L14.3999 10.8C9.9999 10.1 5.4999 9.59997 1.2999 9.59997C2.8999 12 9.2999 12.5 13.8999 12.6L13.4999 14.2C10.7999 14.1 7.7999 14.1 4.8999 14.2C5.8999 15.9 8.5999 16.2 11.0999 16.4C13.7999 16.7 18.0999 17.1 19.5999 19.6C23.4999 25.5 26.3999 30 32.3999 30C34.1999 30 35.6999 29.7 36.4999 29.4C35.9999 31.4 31.3999 30.4 28.8999 34.3C27.3999 36.6 27.3999 39.2 24.3999 39.9C22.4999 40.4 21.2999 41.2 21.2999 42.7C24.3999 42.6 26.6999 42.2 29.8999 41.2C41.3999 37.7 45.9999 31.2 45.9999 25.9C45.9999 23 44.3999 20.1 39.8999 18.1L39.9999 17.9C41.5999 18.2 46.4999 21 48.0999 21.7C50.0999 22.6 51.7999 23.1 53.5999 23.1C48.6999 19.8 44.2999 17.6 40.1999 16.3C38.7999 15.8 37.9999 15.5 37.9999 15C37.9999 14.5 38.7999 14.5 38.7999 14.1C38.7999 13.8 38.2999 13.7 38.2999 13.1C38.2999 12.7 38.5999 12.3 39.0999 12.3C39.5999 12.3 39.8999 12.6 39.9999 13.1C40.0999 13.4 40.1999 13.8 40.6999 14C44.7999 16 50.4999 20 54.0999 22.9V23.6C54.4999 23.6 54.7999 23.2 54.7999 22.9C54.7999 22.7 54.6999 22.4 54.4999 22.3C51.9999 20 44.6999 13.5 39.1999 11.2C37.9999 10.7 36.6999 10.5 35.7999 10.5V10.9H34.3999L34.6999 11.4L33.3999 11.6L33.8999 12.3L32.8999 12.7L33.3999 13.5L32.6999 14L33.0999 14.7L32.6999 15Z" fill="black"/>
</svg>